<svg xmlns="http://www.w3.org/2000/svg" width="16" height="16" viewBox="0 0 16 16">
  <g fill="none" fill-rule="evenodd">
    <rect width="16" height="16" fill="#3498DB" rx="2"/>
    <path fill="#FFF" d="M4,4 L12,4 C12.5522847,4 13,4.44771525 13,5 L13,11 C13,11.5522847 12.5522847,12 12,12 L4,12 C3.44771525,12 3,11.5522847 3,11 L3,5 C3,4.44771525 3.44771525,4 4,4 Z"/>
    <path fill="#3498DB" d="M5,6 L11,6 L11,7 L5,7 L5,6 Z M5,8 L11,8 L11,9 L5,9 L5,8 Z M5,10 L9,10 L9,11 L5,11 L5,10 Z"/>
    <path fill="#E74C3C" stroke="#FFF" stroke-width="0.5" d="M13,2 C13.5522847,2 14,2.44771525 14,3 C14,3.55228475 13.5522847,4 13,4 C12.4477153,4 12,3.55228475 12,3 C12,2.44771525 12.4477153,2 13,2 Z"/>
  </g>
</svg>
